<svg width="28.119px" height="28.119px" viewBox="0 -1.99 28.119 28.119" xmlns="http://www.w3.org/2000/svg">
  <path id="Path_20" data-name="Path 20" d="M94.728,188.58v-4.021c0-.935-.014-3.164-2.37-3.806l-1.293-5.9c-.235-1.084-.637-2.318-2.958-2.318H84v-1.746H78.03v1.746H73.92c-2.322,0-2.722,1.234-2.959,2.318l-1.293,5.9c-2.355.642-2.369,2.871-2.369,3.806v4.021a1.01,1.01,0,0,0-.345.758v.342a1.03,1.03,0,0,0,1.032,1.031h.806v1.926c.1,2.287.714,2.287,2.317,2.287s2.21,0,2.315-2.287v-1.926H88.6v1.926c.106,2.287.714,2.287,2.315,2.287s2.213,0,2.32-2.287v-1.926h.806a1.03,1.03,0,0,0,1.031-1.031v-.342A1.013,1.013,0,0,0,94.728,188.58Zm-21.86-13c.185-.848.65-1.025,1.52-1.025H87.639c.87,0,1.335.177,1.521,1.025l1.011,4.619a49.707,49.707,0,0,0-9.159-.693,49.682,49.682,0,0,0-9.157.693Zm-2.782,9.049a1.385,1.385,0,1,1,1.384-1.385A1.382,1.382,0,0,1,70.086,184.631Zm4.085,0a1.385,1.385,0,1,1,1.386-1.385A1.385,1.385,0,0,1,74.171,184.631Zm13.684,0a1.385,1.385,0,1,1,1.385-1.385A1.384,1.384,0,0,1,87.855,184.631Zm4.086,0a1.385,1.385,0,1,1,1.383-1.385A1.384,1.384,0,0,1,91.941,184.631Z" transform="translate(-66.954 -170.793)"/>
</svg>
